<svg xmlns="http://www.w3.org/2000/svg" version="1.1" xmlns:xlink="http://www.w3.org/1999/xlink" xmlns:svgjs="http://svgjs.dev/svgjs" viewBox="0 0 800 800"><defs><linearGradient x1="50%" y1="0%" x2="50%" y2="100%" id="ffflurry-grad" gradientTransform="rotate(270)"><stop stop-color="hsl(238, 82%, 13%)" stop-opacity="1" offset="0%"></stop><stop stop-color="hsl(1.4, 100%, 67%)" stop-opacity="1" offset="45%"></stop><stop stop-color="hsl(167, 52%, 78%)" stop-opacity="1" offset="100%"></stop></linearGradient></defs><rect width="100%" height="100%" fill="hsl(238, 82%, 13%)"></rect><g fill="url(#ffflurry-grad)"><rect width="47" height="1" x="599.5" y="184.5" rx="0.5" transform="rotate(45, 623, 185)" opacity="0.15"></rect><rect width="72" height="1" x="396" y="27.5" rx="0.5" transform="rotate(45, 432, 28)" opacity="0.50"></rect><rect width="127" height="1" x="429.5" y="518.5" rx="0.5" transform="rotate(45, 493, 519)" opacity="0.42"></rect><rect width="56" height="1" x="518" y="342.5" rx="0.5" transform="rotate(45, 546, 343)" opacity="0.47"></rect><rect width="40" height="1" x="643" y="710.5" rx="0.5" transform="rotate(45, 663, 711)" opacity="0.51"></rect><rect width="92" height="1" x="185" y="245.5" rx="0.5" transform="rotate(45, 231, 246)" opacity="0.08"></rect><rect width="115" height="1" x="408.5" y="632.5" rx="0.5" transform="rotate(45, 466, 633)" opacity="0.92"></rect><rect width="55" height="1" x="452.5" y="234.5" rx="0.5" transform="rotate(45, 480, 235)" opacity="0.30"></rect><rect width="101" height="1" x="248.5" y="39.5" rx="0.5" transform="rotate(45, 299, 40)" opacity="0.39"></rect><rect width="94" height="1" x="591" y="79.5" rx="0.5" transform="rotate(45, 638, 80)" opacity="0.69"></rect><rect width="39" height="1" x="709.5" y="713.5" rx="0.5" transform="rotate(45, 729, 714)" opacity="0.79"></rect><rect width="64" height="1" x="179" y="536.5" rx="0.5" transform="rotate(45, 211, 537)" opacity="0.60"></rect><rect width="85" height="1" x="168.5" y="91.5" rx="0.5" transform="rotate(45, 211, 92)" opacity="0.38"></rect><rect width="66" height="1" x="29" y="269.5" rx="0.5" transform="rotate(45, 62, 270)" opacity="0.83"></rect><rect width="57" height="1" x="29.5" y="424.5" rx="0.5" transform="rotate(45, 58, 425)" opacity="0.07"></rect><rect width="63" height="1" x="40.5" y="572.5" rx="0.5" transform="rotate(45, 72, 573)" opacity="0.16"></rect><rect width="84" height="1" x="555" y="765.5" rx="0.5" transform="rotate(45, 597, 766)" opacity="0.11"></rect><rect width="69" height="1" x="307.5" y="271.5" rx="0.5" transform="rotate(45, 342, 272)" opacity="0.82"></rect><rect width="105" height="1" x="421.5" y="745.5" rx="0.5" transform="rotate(45, 474, 746)" opacity="0.67"></rect><rect width="115" height="1" x="145.5" y="678.5" rx="0.5" transform="rotate(45, 203, 679)" opacity="0.67"></rect><rect width="116" height="1" x="307" y="155.5" rx="0.5" transform="rotate(45, 365, 156)" opacity="0.70"></rect><rect width="93" height="1" x="12.5" y="748.5" rx="0.5" transform="rotate(45, 59, 749)" opacity="0.73"></rect><rect width="23" height="1" x="768.5" y="703.5" rx="0.5" transform="rotate(45, 780, 704)" opacity="0.87"></rect><rect width="45" height="1" x="468.5" y="301.5" rx="0.5" transform="rotate(45, 491, 302)" opacity="0.67"></rect><rect width="34" height="1" x="194" y="762.5" rx="0.5" transform="rotate(45, 211, 763)" opacity="0.11"></rect><rect width="38" height="1" x="137" y="353.5" rx="0.5" transform="rotate(45, 156, 354)" opacity="0.12"></rect><rect width="59" height="1" x="70.5" y="377.5" rx="0.5" transform="rotate(45, 100, 378)" opacity="0.47"></rect><rect width="94" height="1" x="367" y="290.5" rx="0.5" transform="rotate(45, 414, 291)" opacity="0.53"></rect><rect width="75" height="1" x="123.5" y="585.5" rx="0.5" transform="rotate(45, 161, 586)" opacity="0.15"></rect><rect width="73" height="1" x="581.5" y="412.5" rx="0.5" transform="rotate(45, 618, 413)" opacity="0.41"></rect><rect width="52" height="1" x="325" y="85.5" rx="0.5" transform="rotate(45, 351, 86)" opacity="0.41"></rect><rect width="44" height="1" x="704" y="394.5" rx="0.5" transform="rotate(45, 726, 395)" opacity="0.58"></rect><rect width="98" height="1" x="646" y="487.5" rx="0.5" transform="rotate(45, 695, 488)" opacity="0.36"></rect><rect width="61" height="1" x="502.5" y="179.5" rx="0.5" transform="rotate(45, 533, 180)" opacity="0.79"></rect><rect width="52" height="1" x="64" y="498.5" rx="0.5" transform="rotate(45, 90, 499)" opacity="0.59"></rect><rect width="38" height="1" x="403" y="477.5" rx="0.5" transform="rotate(45, 422, 478)" opacity="0.67"></rect><rect width="101" height="1" x="261.5" y="661.5" rx="0.5" transform="rotate(45, 312, 662)" opacity="0.94"></rect><rect width="67" height="1" x="703.5" y="177.5" rx="0.5" transform="rotate(45, 737, 178)" opacity="0.85"></rect><rect width="120" height="1" x="29" y="198.5" rx="0.5" transform="rotate(45, 89, 199)" opacity="0.46"></rect><rect width="102" height="1" x="119" y="470.5" rx="0.5" transform="rotate(45, 170, 471)" opacity="0.44"></rect><rect width="91" height="1" x="75.5" y="655.5" rx="0.5" transform="rotate(45, 121, 656)" opacity="0.38"></rect><rect width="110" height="1" x="237" y="199.5" rx="0.5" transform="rotate(45, 292, 200)" opacity="0.14"></rect><rect width="64" height="1" x="224" y="602.5" rx="0.5" transform="rotate(45, 256, 603)" opacity="0.67"></rect><rect width="55" height="1" x="352.5" y="585.5" rx="0.5" transform="rotate(45, 380, 586)" opacity="0.38"></rect><rect width="69" height="1" x="508.5" y="101.5" rx="0.5" transform="rotate(45, 543, 102)" opacity="0.24"></rect><rect width="54" height="1" x="265" y="531.5" rx="0.5" transform="rotate(45, 292, 532)" opacity="0.48"></rect><rect width="95" height="1" x="96.5" y="758.5" rx="0.5" transform="rotate(45, 144, 759)" opacity="0.84"></rect><rect width="104" height="1" x="389" y="176.5" rx="0.5" transform="rotate(45, 441, 177)" opacity="0.94"></rect><rect width="39" height="1" x="174.5" y="151.5" rx="0.5" transform="rotate(45, 194, 152)" opacity="0.51"></rect><rect width="37" height="1" x="441.5" y="91.5" rx="0.5" transform="rotate(45, 460, 92)" opacity="0.84"></rect><rect width="34" height="1" x="137" y="32.5" rx="0.5" transform="rotate(45, 154, 33)" opacity="0.98"></rect><rect width="79" height="1" x="217.5" y="326.5" rx="0.5" transform="rotate(45, 257, 327)" opacity="1.00"></rect><rect width="58" height="1" x="586" y="277.5" rx="0.5" transform="rotate(45, 615, 278)" opacity="0.43"></rect><rect width="76" height="1" x="674" y="568.5" rx="0.5" transform="rotate(45, 712, 569)" opacity="0.21"></rect><rect width="121" height="1" x="218.5" y="750.5" rx="0.5" transform="rotate(45, 279, 751)" opacity="0.84"></rect><rect width="98" height="1" x="2" y="91.5" rx="0.5" transform="rotate(45, 51, 92)" opacity="0.25"></rect><rect width="57" height="1" x="707.5" y="776.5" rx="0.5" transform="rotate(45, 736, 777)" opacity="0.98"></rect><rect width="87" height="1" x="124.5" y="214.5" rx="0.5" transform="rotate(45, 168, 215)" opacity="0.30"></rect><rect width="128" height="1" x="-29" y="653.5" rx="0.5" transform="rotate(45, 35, 654)" opacity="0.85"></rect><rect width="85" height="1" x="692.5" y="297.5" rx="0.5" transform="rotate(45, 735, 298)" opacity="0.46"></rect><rect width="47" height="1" x="287.5" y="463.5" rx="0.5" transform="rotate(45, 311, 464)" opacity="0.61"></rect><rect width="110" height="1" x="460" y="421.5" rx="0.5" transform="rotate(45, 515, 422)" opacity="0.63"></rect><rect width="63" height="1" x="340.5" y="362.5" rx="0.5" transform="rotate(45, 372, 363)" opacity="0.88"></rect><rect width="77" height="1" x="-16.5" y="500.5" rx="0.5" transform="rotate(45, 22, 501)" opacity="0.54"></rect><rect width="164" height="1" x="656" y="54.5" rx="0.5" transform="rotate(45, 738, 55)" opacity="0.60"></rect><rect width="36" height="1" x="701" y="633.5" rx="0.5" transform="rotate(45, 719, 634)" opacity="0.32"></rect><rect width="63" height="1" x="370.5" y="416.5" rx="0.5" transform="rotate(45, 402, 417)" opacity="0.27"></rect><rect width="74" height="1" x="523" y="584.5" rx="0.5" transform="rotate(45, 560, 585)" opacity="0.89"></rect><rect width="58" height="1" x="542" y="679.5" rx="0.5" transform="rotate(45, 571, 680)" opacity="0.50"></rect><rect width="116" height="1" x="315" y="740.5" rx="0.5" transform="rotate(45, 373, 741)" opacity="0.39"></rect><rect width="73" height="1" x="735.5" y="455.5" rx="0.5" transform="rotate(45, 772, 456)" opacity="0.33"></rect><rect width="59" height="1" x="528.5" y="28.5" rx="0.5" transform="rotate(45, 558, 29)" opacity="0.70"></rect><rect width="52" height="1" x="748" y="547.5" rx="0.5" transform="rotate(45, 774, 548)" opacity="0.13"></rect><rect width="77" height="1" x="-12.5" y="332.5" rx="0.5" transform="rotate(45, 26, 333)" opacity="0.38"></rect><rect width="90" height="1" x="206" y="402.5" rx="0.5" transform="rotate(45, 251, 403)" opacity="0.18"></rect><rect width="56" height="1" x="596" y="540.5" rx="0.5" transform="rotate(45, 624, 541)" opacity="0.46"></rect><rect width="55" height="1" x="145.5" y="288.5" rx="0.5" transform="rotate(45, 173, 289)" opacity="0.53"></rect></g></svg>