<svg xmlns="http://www.w3.org/2000/svg" version="1.1" xmlns:xlink="http://www.w3.org/1999/xlink" xmlns:svgjs="http://svgjs.dev/svgjs" viewBox="0 0 800 800"><defs><linearGradient x1="50%" y1="0%" x2="50%" y2="100%" id="ffflurry-grad" gradientTransform="rotate(270)"><stop stop-color="hsl(238, 82%, 13%)" stop-opacity="1" offset="0%"></stop><stop stop-color="hsl(278, 100%, 22%)" stop-opacity="1" offset="45%"></stop><stop stop-color="hsl(278, 100%, 91%)" stop-opacity="1" offset="100%"></stop></linearGradient></defs><rect width="100%" height="100%" fill="hsl(238, 82%, 13%)"></rect><g fill="url(#ffflurry-grad)"><rect width="809" height="3" x="335.5" y="64.5" rx="1.5" transform="rotate(45, 740, 66)" opacity="0.46"></rect><rect width="325" height="3" x="255.5" y="28.5" rx="1.5" transform="rotate(45, 418, 30)" opacity="0.12"></rect><rect width="209" height="3" x="357.5" y="763.5" rx="1.5" transform="rotate(45, 462, 765)" opacity="0.31"></rect><rect width="679" height="3" x="-73.5" y="452.5" rx="1.5" transform="rotate(45, 266, 454)" opacity="0.17"></rect><rect width="453" height="3" x="434.5" y="690.5" rx="1.5" transform="rotate(45, 661, 692)" opacity="0.97"></rect><rect width="209" height="3" x="-58.5" y="298.5" rx="1.5" transform="rotate(45, 46, 300)" opacity="0.94"></rect><rect width="489" height="3" x="328.5" y="144.5" rx="1.5" transform="rotate(45, 573, 146)" opacity="0.17"></rect><rect width="357" height="3" x="-56.5" y="570.5" rx="1.5" transform="rotate(45, 122, 572)" opacity="0.81"></rect><rect width="198" height="3" x="557" y="381.5" rx="1.5" transform="rotate(45, 656, 383)" opacity="0.13"></rect><rect width="213" height="3" x="128.5" y="365.5" rx="1.5" transform="rotate(45, 235, 367)" opacity="0.39"></rect><rect width="303" height="3" x="198.5" y="378.5" rx="1.5" transform="rotate(45, 350, 380)" opacity="0.89"></rect><rect width="204" height="3" x="346" y="306.5" rx="1.5" transform="rotate(45, 448, 308)" opacity="0.40"></rect><rect width="458" height="3" x="-28" y="753.5" rx="1.5" transform="rotate(45, 201, 755)" opacity="0.24"></rect><rect width="119" height="3" x="-23.5" y="776.5" rx="1.5" transform="rotate(45, 36, 778)" opacity="0.42"></rect><rect width="125" height="3" x="233.5" y="765.5" rx="1.5" transform="rotate(45, 296, 767)" opacity="0.24"></rect><rect width="419" height="3" x="-138.5" y="683.5" rx="1.5" transform="rotate(45, 71, 685)" opacity="0.15"></rect><rect width="136" height="3" x="113" y="312.5" rx="1.5" transform="rotate(45, 181, 314)" opacity="0.11"></rect><rect width="273" height="3" x="498.5" y="100.5" rx="1.5" transform="rotate(45, 635, 102)" opacity="0.07"></rect><rect width="111" height="3" x="77.5" y="772.5" rx="1.5" transform="rotate(45, 133, 774)" opacity="0.67"></rect><rect width="187" height="3" x="356.5" y="648.5" rx="1.5" transform="rotate(45, 450, 650)" opacity="0.70"></rect><rect width="146" height="3" x="628" y="167.5" rx="1.5" transform="rotate(45, 701, 169)" opacity="0.93"></rect><rect width="97" height="3" x="330.5" y="632.5" rx="1.5" transform="rotate(45, 379, 634)" opacity="0.39"></rect><rect width="465" height="3" x="-183.5" y="539.5" rx="1.5" transform="rotate(45, 49, 541)" opacity="0.97"></rect><rect width="54" height="3" x="557" y="777.5" rx="1.5" transform="rotate(45, 584, 779)" opacity="0.69"></rect><rect width="586" height="3" x="-251" y="621.5" rx="1.5" transform="rotate(45, 42, 623)" opacity="0.61"></rect><rect width="724" height="3" x="243" y="246.5" rx="1.5" transform="rotate(45, 605, 248)" opacity="0.71"></rect><rect width="67" height="3" x="107.5" y="666.5" rx="1.5" transform="rotate(45, 141, 668)" opacity="0.18"></rect><rect width="237" height="3" x="155.5" y="32.5" rx="1.5" transform="rotate(45, 274, 34)" opacity="0.41"></rect><rect width="369" height="3" x="225.5" y="105.5" rx="1.5" transform="rotate(45, 410, 107)" opacity="0.72"></rect><rect width="175" height="3" x="426.5" y="600.5" rx="1.5" transform="rotate(45, 514, 602)" opacity="0.60"></rect><rect width="458" height="3" x="481" y="479.5" rx="1.5" transform="rotate(45, 710, 481)" opacity="0.59"></rect><rect width="571" height="3" x="465.5" y="354.5" rx="1.5" transform="rotate(45, 751, 356)" opacity="0.72"></rect><rect width="94" height="3" x="-14" y="197.5" rx="1.5" transform="rotate(45, 33, 199)" opacity="0.99"></rect><rect width="348" height="3" x="0" y="49.5" rx="1.5" transform="rotate(45, 174, 51)" opacity="0.18"></rect><rect width="307" height="3" x="-34.5" y="383.5" rx="1.5" transform="rotate(45, 119, 385)" opacity="0.49"></rect><rect width="658" height="3" x="-37" y="539.5" rx="1.5" transform="rotate(45, 292, 541)" opacity="0.25"></rect><rect width="75" height="3" x="71.5" y="733.5" rx="1.5" transform="rotate(45, 109, 735)" opacity="0.97"></rect><rect width="475" height="3" x="364.5" y="35.5" rx="1.5" transform="rotate(45, 602, 37)" opacity="0.65"></rect><rect width="178" height="3" x="646" y="759.5" rx="1.5" transform="rotate(45, 735, 761)" opacity="0.57"></rect><rect width="240" height="3" x="34" y="247.5" rx="1.5" transform="rotate(45, 154, 249)" opacity="0.10"></rect><rect width="356" height="3" x="-74" y="215.5" rx="1.5" transform="rotate(45, 104, 217)" opacity="0.19"></rect><rect width="383" height="3" x="5.5" y="596.5" rx="1.5" transform="rotate(45, 197, 598)" opacity="0.97"></rect><rect width="796" height="3" x="58" y="447.5" rx="1.5" transform="rotate(45, 456, 449)" opacity="0.19"></rect><rect width="214" height="3" x="219" y="271.5" rx="1.5" transform="rotate(45, 326, 273)" opacity="0.25"></rect><rect width="591" height="3" x="191.5" y="134.5" rx="1.5" transform="rotate(45, 487, 136)" opacity="0.25"></rect><rect width="246" height="3" x="114" y="690.5" rx="1.5" transform="rotate(45, 237, 692)" opacity="0.97"></rect><rect width="655" height="3" x="39.5" y="185.5" rx="1.5" transform="rotate(45, 367, 187)" opacity="0.37"></rect><rect width="133" height="3" x="-47.5" y="706.5" rx="1.5" transform="rotate(45, 19, 708)" opacity="0.50"></rect><rect width="468" height="3" x="516" y="675.5" rx="1.5" transform="rotate(45, 750, 677)" opacity="0.17"></rect><rect width="244" height="3" x="133" y="617.5" rx="1.5" transform="rotate(45, 255, 619)" opacity="0.94"></rect><rect width="429" height="3" x="308.5" y="714.5" rx="1.5" transform="rotate(45, 523, 716)" opacity="0.93"></rect><rect width="482" height="3" x="-5" y="216.5" rx="1.5" transform="rotate(45, 236, 218)" opacity="0.45"></rect><rect width="97" height="3" x="726.5" y="485.5" rx="1.5" transform="rotate(45, 775, 487)" opacity="0.87"></rect><rect width="280" height="3" x="631" y="596.5" rx="1.5" transform="rotate(45, 771, 598)" opacity="0.57"></rect><rect width="135" height="3" x="275.5" y="44.5" rx="1.5" transform="rotate(45, 343, 46)" opacity="0.67"></rect><rect width="187" height="3" x="-41.5" y="470.5" rx="1.5" transform="rotate(45, 52, 472)" opacity="0.64"></rect><rect width="359" height="3" x="376.5" y="526.5" rx="1.5" transform="rotate(45, 556, 528)" opacity="0.49"></rect><rect width="676" height="3" x="393" y="248.5" rx="1.5" transform="rotate(45, 731, 250)" opacity="0.77"></rect><rect width="236" height="3" x="386" y="42.5" rx="1.5" transform="rotate(45, 504, 44)" opacity="0.97"></rect><rect width="422" height="3" x="399" y="470.5" rx="1.5" transform="rotate(45, 610, 472)" opacity="0.27"></rect><rect width="405" height="3" x="109.5" y="632.5" rx="1.5" transform="rotate(45, 312, 634)" opacity="0.41"></rect><rect width="40" height="3" x="684" y="570.5" rx="1.5" transform="rotate(45, 704, 572)" opacity="0.42"></rect><rect width="227" height="3" x="-52.5" y="742.5" rx="1.5" transform="rotate(45, 61, 744)" opacity="0.32"></rect><rect width="388" height="3" x="200" y="742.5" rx="1.5" transform="rotate(45, 394, 744)" opacity="0.61"></rect><rect width="592" height="3" x="92" y="527.5" rx="1.5" transform="rotate(45, 388, 529)" opacity="0.85"></rect><rect width="544" height="3" x="-202" y="38.5" rx="1.5" transform="rotate(45, 70, 40)" opacity="0.75"></rect><rect width="512" height="3" x="-217" y="395.5" rx="1.5" transform="rotate(45, 39, 397)" opacity="0.91"></rect><rect width="347" height="3" x="157.5" y="703.5" rx="1.5" transform="rotate(45, 331, 705)" opacity="0.32"></rect><rect width="642" height="3" x="311" y="610.5" rx="1.5" transform="rotate(45, 632, 612)" opacity="0.13"></rect><rect width="365" height="3" x="9.5" y="134.5" rx="1.5" transform="rotate(45, 192, 136)" opacity="0.91"></rect><rect width="333" height="3" x="335.5" y="221.5" rx="1.5" transform="rotate(45, 502, 223)" opacity="0.72"></rect><rect width="621" height="3" x="-22.5" y="110.5" rx="1.5" transform="rotate(45, 288, 112)" opacity="0.10"></rect><rect width="57" height="3" x="196.5" y="19.5" rx="1.5" transform="rotate(45, 225, 21)" opacity="0.23"></rect><rect width="351" height="3" x="-5.5" y="489.5" rx="1.5" transform="rotate(45, 170, 491)" opacity="0.15"></rect><rect width="365" height="3" x="-116.5" y="118.5" rx="1.5" transform="rotate(45, 66, 120)" opacity="0.62"></rect><rect width="613" height="3" x="246.5" y="354.5" rx="1.5" transform="rotate(45, 553, 356)" opacity="0.90"></rect><rect width="243" height="3" x="487.5" y="722.5" rx="1.5" transform="rotate(45, 609, 724)" opacity="0.93"></rect></g></svg>